<?xml version="1.0" standalone="no"?>
<!DOCTYPE svg PUBLIC "-//W3C//DTD SVG 20010904//EN"
 "http://www.w3.org/TR/2001/REC-SVG-20010904/DTD/svg10.dtd">
<svg version="1.0" xmlns="http://www.w3.org/2000/svg"
 width="1024.000000pt" height="1024.000000pt" viewBox="0 0 1024.000000 1024.000000"
 preserveAspectRatio="xMidYMid meet">
<metadata>
Created by potrace 1.14, written by Peter Selinger 2001-2017
</metadata>
<g transform="translate(0.000000,1024.000000) scale(0.100000,-0.100000)"
fill="#000000" stroke="none">
<path d="M4970 8324 c-19 -2 -80 -9 -135 -14 -132 -15 -143 -16 -190 -25 -130
-23 -482 -122 -605 -170 -204 -80 -385 -166 -519 -247 -34 -21 -65 -38 -67
-38 -7 0 -140 -97 -254 -186 -233 -180 -495 -462 -661 -710 -99 -148 -116
-177 -198 -336 -130 -250 -194 -419 -262 -688 -52 -210 -55 -224 -70 -345 -6
-44 -12 -96 -15 -115 -3 -19 -7 -187 -10 -374 l-4 -338 -34 -42 c-57 -69 -87
-142 -107 -255 -10 -58 -27 -146 -38 -196 -10 -49 -29 -139 -40 -200 -12 -60
-32 -166 -45 -235 -33 -166 -40 -250 -28 -291 6 -19 16 -59 22 -90 21 -108
108 -230 233 -324 l47 -36 0 -257 c0 -344 10 -403 92 -545 79 -136 210 -242
368 -296 40 -13 343 -15 2715 -17 2572 -1 2673 -1 2740 17 223 59 393 232 455
463 18 68 20 106 20 360 l0 285 44 30 c100 69 226 250 226 325 0 14 4 27 9 30
14 9 20 107 10 166 -20 119 -40 236 -44 265 -3 17 -23 125 -45 240 -33 177
-48 262 -64 375 -5 32 -51 118 -92 171 l-42 55 -5 425 c-3 279 -8 438 -16 464
-9 33 -27 115 -47 220 -34 180 -158 512 -283 760 -128 254 -375 592 -576 788
-255 251 -571 477 -826 595 -167 77 -247 112 -256 112 -5 0 -24 7 -41 15 -17
9 -39 18 -49 20 -10 2 -38 11 -63 20 -25 9 -52 18 -60 20 -8 2 -44 13 -80 24
-36 12 -74 23 -85 25 -11 3 -56 14 -100 25 -118 29 -282 60 -350 66 -86 7
-534 14 -575 9z m640 -299 c174 -30 415 -90 508 -126 40 -16 77 -29 82 -29 5
0 34 -11 64 -25 30 -14 58 -25 62 -25 13 0 299 -147 359 -185 88 -55 202 -132
270 -184 149 -111 377 -333 497 -482 65 -82 248 -342 248 -353 0 -3 21 -40 47
-83 45 -77 99 -187 172 -354 18 -42 93 -292 126 -419 49 -195 65 -356 65 -675
l0 -241 -69 -10 c-132 -21 -240 -99 -298 -217 -37 -73 -40 -104 -17 -153 20
-42 42 -55 96 -56 47 0 76 26 119 108 67 130 256 124 327 -11 19 -37 41 -138
41 -185 -1 -35 -1 -35 -9 -7 -16 52 -54 91 -104 106 -55 16 -81 10 -67 -16 5
-10 15 -81 21 -158 6 -77 20 -214 30 -305 18 -154 19 -195 4 -156 -8 21 -53
44 -77 40 -31 -4 -66 -33 -73 -58 -3 -13 -4 -137 -2 -275 3 -220 1 -251 -12
-246 -54 21 -144 82 -173 118 -67 82 -114 192 -116 277 -1 38 -17 11 -34 -61
-9 -36 -25 -85 -37 -110 l-20 -44 4 110 c4 101 1 123 -35 270 -21 88 -48 203
-59 255 -31 141 -40 165 -72 204 -36 43 -92 62 -135 45 -23 -10 -25 -13 -9
-17 18 -4 18 -11 12 -104 -3 -56 -9 -162 -13 -237 -4 -88 -11 -143 -19 -156
-11 -15 -14 -71 -14 -237 0 -120 -3 -218 -6 -218 -4 0 -34 18 -67 40 -68 46
-87 42 -87 -17 0 -64 54 -132 125 -156 l40 -14 3 -257 c2 -190 -1 -256 -9
-256 -7 0 -55 22 -108 49 -53 27 -159 77 -236 111 -77 34 -158 69 -180 79
-118 53 -135 61 -142 61 -5 0 -19 6 -33 13 -26 13 -69 29 -245 91 -212 73
-462 135 -615 151 -19 2 -69 9 -110 14 -41 6 -142 13 -225 16 -145 5 -148 4
-90 -9 156 -37 338 -119 426 -192 43 -36 111 -147 103 -169 -3 -6 25 -16 68
-23 145 -25 414 -101 508 -143 14 -7 34 -15 45 -19 133 -49 536 -263 521 -277
-2 -3 -17 2 -33 10 -28 15 -61 30 -137 61 -22 9 -46 14 -53 11 -8 -2 -12 -1
-9 4 6 9 -4 13 -231 90 -84 28 -161 51 -172 51 -11 0 -21 4 -23 8 -2 6 -84 30
-228 67 -40 10 -221 44 -265 49 -212 26 -322 38 -405 43 l-85 5 25 -27 c21
-22 25 -36 25 -90 0 -56 -4 -68 -31 -101 -39 -49 -120 -106 -214 -150 -140
-67 -468 -168 -670 -207 -36 -7 -390 -12 -1003 -14 l-948 -3 -50 21 c-59 26
-134 105 -149 157 -6 21 -10 161 -10 327 l0 290 51 12 c129 31 245 118 295
220 15 29 30 56 35 58 4 3 19 -10 32 -29 30 -44 62 -70 115 -91 l42 -17 0
-348 c0 -336 1 -348 21 -374 26 -33 88 -37 119 -6 19 19 20 33 20 380 0 340 1
360 18 360 25 0 108 54 126 83 18 27 24 89 12 128 -5 19 -3 31 9 42 23 24 45
93 45 146 0 25 -9 84 -20 131 -18 74 -97 421 -103 453 -1 7 -4 14 -7 17 -3 3
-13 22 -23 43 -12 27 -29 43 -60 57 -52 24 -75 25 -127 4 -39 -16 -58 -41 -21
-29 12 3 21 0 25 -10 5 -15 -6 -196 -20 -313 -11 -92 -12 -112 -13 -364 -1
-137 -5 -248 -9 -248 -8 0 -76 42 -150 92 -45 30 -65 73 -83 173 -6 37 -31
115 -54 174 -38 95 -203 458 -258 569 -30 61 -90 90 -117 57 -9 -11 -10 -15
-1 -15 8 0 10 -8 5 -22 -7 -24 -8 -302 0 -450 4 -85 3 -88 -25 -118 l-29 -30
0 -270 0 -270 -56 25 c-99 44 -164 117 -199 224 -22 67 -21 119 5 241 12 52
27 129 35 170 8 41 21 102 30 135 9 33 36 156 60 273 37 177 49 218 72 249 76
100 233 81 294 -36 33 -64 56 -89 95 -101 61 -20 126 34 126 103 0 154 -156
300 -350 329 l-24 3 1 205 c1 113 8 275 16 360 15 159 21 202 38 270 3 14 20
86 37 160 17 74 36 143 41 152 5 10 9 25 9 34 0 9 7 30 15 47 8 18 25 62 39
98 62 169 201 431 314 594 220 317 534 622 849 828 108 70 364 200 483 245
161 61 311 112 355 122 22 4 90 20 150 34 61 15 130 29 155 32 25 3 61 9 80
14 19 4 170 8 335 8 266 0 315 -3 435 -23z m2086 -4761 c49 -84 163 -182 232
-200 9 -2 38 -10 65 -16 l47 -13 0 -303 c0 -242 -3 -310 -14 -337 -8 -19 -17
-35 -20 -35 -6 0 -144 62 -286 128 -47 21 -123 56 -170 77 -47 21 -88 43 -92
49 -4 6 -8 135 -8 286 0 151 4 280 8 286 4 6 21 15 37 18 46 11 106 57 128 98
10 21 22 36 26 33 5 -2 25 -34 47 -71z"/>
<path d="M4300 7385 c-45 -17 -359 -137 -425 -161 -27 -11 -52 -22 -55 -26 -3
-3 -19 -10 -35 -14 -17 -4 -56 -18 -88 -32 l-58 -26 2 -70 c3 -108 2 -106 57
-90 26 7 76 24 112 37 97 37 279 103 419 153 l123 44 162 -71 c88 -39 194 -87
234 -105 59 -28 206 -84 219 -84 2 0 3 43 3 95 l0 94 -32 15 c-18 8 -89 39
-158 69 -69 30 -193 84 -276 121 -83 36 -155 66 -160 66 -5 -1 -25 -7 -44 -15z"/>
<path d="M5990 7349 c-69 -27 -165 -64 -215 -81 -49 -17 -94 -34 -100 -38 -5
-4 -22 -10 -37 -14 -15 -3 -40 -11 -55 -18 -15 -6 -32 -12 -38 -13 -5 -2 -36
-14 -67 -28 l-58 -26 0 -85 c0 -47 3 -87 8 -89 8 -6 148 41 402 135 306 114
302 113 358 92 26 -10 56 -24 68 -31 11 -7 24 -10 27 -6 4 3 7 2 7 -4 0 -6 12
-14 27 -18 14 -3 68 -26 119 -51 51 -24 95 -44 98 -44 3 0 34 -13 68 -29 35
-16 87 -39 116 -50 l53 -21 -3 97 -3 97 -130 57 c-71 32 -159 71 -195 88 -187
85 -268 119 -295 124 -22 5 -63 -7 -155 -44z"/>
<path d="M6069 7038 c-130 -47 -326 -117 -409 -145 -41 -14 -92 -34 -112 -44
-21 -11 -44 -19 -52 -19 -9 0 -44 -11 -78 -24 -35 -14 -108 -41 -162 -61
l-100 -36 -40 17 c-23 10 -83 37 -134 61 -51 23 -95 43 -97 43 -2 0 -34 14
-72 31 -211 97 -333 152 -377 172 -67 30 -104 26 -231 -24 -60 -24 -112 -44
-115 -44 -3 0 -25 -8 -50 -18 -25 -9 -144 -52 -265 -96 -121 -44 -263 -96
-315 -116 -52 -21 -102 -38 -110 -40 -8 -2 -52 -20 -98 -39 -46 -20 -90 -36
-98 -36 -11 0 -14 -22 -14 -115 l0 -115 90 0 90 0 0 -1696 c-1 -933 1 -1699 4
-1702 3 -2 20 2 38 11 18 8 60 28 93 42 33 15 63 33 67 39 4 6 8 781 8 1723 0
1639 1 1713 18 1722 10 5 112 41 228 80 115 38 293 99 397 134 l187 64 0
-1705 c0 -938 1 -1707 4 -1709 2 -2 21 0 43 6 21 5 64 15 96 22 l57 12 0 482
0 482 23 11 c46 23 600 202 625 202 9 0 13 -147 14 -567 l3 -568 23 3 c12 2
64 -1 115 -7 50 -5 136 -13 190 -16 l97 -7 0 596 0 596 -27 12 c-16 7 -113 52
-218 100 -104 48 -201 88 -215 88 -14 0 -124 -33 -245 -74 -121 -40 -233 -77
-248 -80 l-28 -7 3 72 3 72 80 29 c44 16 91 32 104 34 14 3 91 27 173 55 81
27 153 49 161 49 7 0 35 -11 63 -24 27 -13 52 -22 57 -19 4 2 7 359 7 793 l0
789 138 45 c140 46 490 165 617 211 39 13 71 25 72 25 2 0 4 -779 5 -1732 l3
-1732 90 -27 c93 -28 137 -43 240 -84 33 -13 112 -43 175 -68 63 -25 175 -75
248 -111 73 -36 135 -66 137 -66 3 0 5 765 5 1700 l0 1699 88 3 87 3 3 85 c2
47 1 94 -2 105 -5 19 -38 37 -146 81 -25 9 -67 27 -95 39 -27 12 -61 26 -75
30 -14 4 -50 19 -80 32 -30 14 -73 33 -95 43 -22 10 -69 31 -105 48 -100 46
-422 189 -451 201 -21 7 -43 3 -110 -21z m729 -1082 l3 -69 -34 6 c-18 3 -49
12 -68 19 l-34 15 3 70 4 70 61 -21 62 -21 3 -69z m-1805 83 l47 -13 0 -74 c0
-40 -3 -71 -7 -69 -5 2 -34 12 -65 22 l-58 18 0 53 c0 60 8 87 24 81 6 -2 32
-10 59 -18z m1754 -379 l53 -14 -1 -73 c-1 -45 -5 -73 -12 -73 -5 0 -34 8 -64
17 l-53 17 0 74 c0 55 3 73 13 69 6 -2 36 -10 64 -17z m-1760 -7 l53 -17 0
-69 c0 -56 -3 -68 -14 -64 -8 3 -34 11 -58 17 -24 7 -46 17 -50 24 -13 19 -9
126 4 126 6 0 35 -8 65 -17z m1764 -376 l44 -13 3 -72 c2 -40 0 -72 -4 -72 -4
0 -34 7 -66 16 l-58 17 0 74 c0 68 2 74 19 68 10 -3 38 -11 62 -18z m-1753
-10 l42 -11 0 -73 0 -73 -27 6 c-101 23 -98 20 -96 61 1 21 2 55 2 77 1 32 4
37 19 31 9 -3 36 -11 60 -18z m1747 -371 l50 -16 -1 -73 c-1 -39 -2 -73 -3
-73 0 -1 -27 6 -58 16 l-58 18 -3 77 c-2 60 0 76 10 73 7 -3 36 -13 63 -22z
m-5 -383 l60 -16 0 -78 c0 -43 -4 -80 -9 -84 -5 -3 -35 3 -65 12 l-56 18 0 83
c0 45 2 82 5 82 3 0 32 -7 65 -17z m18 -244 l42 -18 0 -70 c0 -38 -3 -72 -7
-74 -5 -3 -33 3 -63 12 l-55 17 -3 83 c-3 94 -9 90 86 50z m-10 -484 l52 -17
0 -79 c0 -43 -2 -79 -5 -79 -3 0 -32 7 -65 17 l-60 16 0 83 c0 62 3 82 13 79
6 -2 36 -11 65 -20z"/>
<path d="M5920 6153 l-75 -4 0 -89 0 -90 83 0 82 0 0 95 c0 52 -3 94 -7 93 -5
-1 -42 -4 -83 -5z"/>
<path d="M3660 6060 l0 -90 90 0 90 0 0 90 0 90 -90 0 -90 0 0 -90z"/>
<path d="M4032 6063 l3 -88 83 -3 82 -3 0 91 0 90 -85 0 -86 0 3 -87z"/>
<path d="M5470 6060 l0 -90 79 0 78 0 7 53 c3 28 6 69 6 90 l0 37 -85 0 -85 0
0 -90z"/>
<path d="M3662 5678 l3 -93 88 -3 87 -3 0 96 0 95 -90 0 -91 0 3 -92z"/>
<path d="M4040 5728 c0 -24 -3 -67 -6 -95 l-7 -53 87 0 86 0 0 95 0 95 -80 0
-80 0 0 -42z"/>
<path d="M5470 5675 l0 -95 80 0 80 0 0 95 0 95 -80 0 -80 0 0 -95z"/>
<path d="M5850 5691 c0 -44 -3 -86 -6 -95 -5 -14 6 -16 80 -16 l86 0 0 95 0
95 -80 0 -80 0 0 -79z"/>
<path d="M3662 5289 l3 -90 85 -2 85 -2 3 93 3 92 -91 0 -91 0 3 -91z"/>
<path d="M4034 5367 c-3 -8 -4 -49 -2 -91 l3 -78 83 -3 82 -2 0 93 0 94 -80 0
c-58 0 -82 -4 -86 -13z"/>
<path d="M5470 5285 l0 -96 83 3 82 3 3 93 3 92 -86 0 -85 0 0 -95z"/>
<path d="M5842 5288 l3 -93 83 -3 82 -3 0 96 0 95 -85 0 -86 0 3 -92z"/>
<path d="M3660 4905 l0 -95 90 0 91 0 -3 93 -3 92 -87 3 -88 3 0 -96z"/>
<path d="M4037 4993 c-4 -3 -7 -46 -7 -95 l0 -88 85 0 85 0 0 95 0 95 -78 0
c-43 0 -82 -3 -85 -7z"/>
<path d="M5477 4994 c-4 -4 -7 -47 -7 -96 l0 -88 83 0 82 0 -2 92 -2 93 -73 3
c-41 1 -77 0 -81 -4z"/>
<path d="M5847 4993 c-4 -3 -7 -46 -7 -95 l0 -88 85 0 85 0 0 95 0 95 -78 0
c-43 0 -82 -3 -85 -7z"/>
<path d="M3662 4313 l3 -88 88 -3 87 -3 0 91 0 90 -90 0 -91 0 3 -87z"/>
<path d="M4032 4313 l3 -88 83 -1 82 -2 0 89 0 89 -85 0 -86 0 3 -87z"/>
<path d="M5840 4310 l0 -91 86 3 86 3 1 88 2 87 -87 0 -88 0 0 -90z"/>
<path d="M4645 4280 c-1 -3 -3 -47 -4 -98 l-2 -93 88 3 88 3 0 94 0 94 -83 1
c-46 1 -85 -1 -87 -4z"/>
<path d="M4944 4277 c-3 -8 -4 -52 -2 -98 l3 -84 85 0 85 0 3 98 3 97 -86 0
c-62 0 -87 -4 -91 -13z"/>
<path d="M4647 3863 c-4 -3 -7 -48 -7 -100 l0 -93 85 0 85 0 0 100 0 100 -78
0 c-43 0 -82 -3 -85 -7z"/>
<path d="M4942 3773 l3 -98 88 -3 87 -3 0 101 0 100 -90 0 -91 0 3 -97z"/>
<path d="M3660 3730 l0 -101 88 3 87 3 0 95 0 95 -87 3 -88 3 0 -101z"/>
<path d="M4030 3730 l0 -100 84 0 83 0 7 90 c4 50 4 95 1 100 -3 6 -44 10 -91
10 l-84 0 0 -100z"/>
<path d="M5840 3735 l0 -95 90 0 90 0 0 95 0 95 -90 0 -90 0 0 -95z"/>
<path d="M3860 3020 c-18 -12 -2 -12 25 0 13 6 15 9 5 9 -8 0 -22 -4 -30 -9z"/>
<path d="M5683 2913 c9 -2 23 -2 30 0 6 3 -1 5 -18 5 -16 0 -22 -2 -12 -5z"/>
<path d="M5758 2903 c7 -3 16 -2 19 1 4 3 -2 6 -13 5 -11 0 -14 -3 -6 -6z"/>
<path d="M2335 7738 c-43 -16 -106 -62 -137 -102 -52 -65 -71 -130 -76 -263
-4 -112 -3 -124 18 -161 40 -71 120 -85 181 -33 33 29 33 29 39 146 7 114 7
117 39 148 31 32 32 32 157 37 119 5 126 6 145 30 33 43 42 95 24 134 -32 68
-41 71 -209 73 -90 1 -163 -2 -181 -9z"/>
<path d="M7705 7741 c-28 -12 -50 -40 -66 -83 -11 -32 -10 -42 6 -78 28 -63
45 -70 158 -70 170 0 197 -24 206 -183 7 -112 17 -139 61 -162 39 -20 79 -19
117 5 56 34 66 67 60 204 -8 202 -55 283 -204 360 -25 13 -61 16 -175 15 -79
0 -152 -4 -163 -8z"/>
</g>
</svg>
